<svg width="41" height="44" viewBox="0 0 41 44" fill="none" xmlns="http://www.w3.org/2000/svg">
<path fill-rule="evenodd" clip-rule="evenodd" d="M10.1428 15.956C9.35581 14.4695 8.91266 12.7902 8.91266 11.0126C8.91266 4.93052 14.1005 0 20.5 0V9.91502C21.3742 8.4744 22.5877 7.23845 24.1096 6.34248C29.3036 3.28451 36.1225 5.34475 39.34 10.9442L30.8254 15.9571C32.4999 16.0011 34.1691 16.4468 35.7009 17.3354C40.9142 20.3595 42.561 27.3671 39.3791 32.9874L30.8572 28.044C31.6442 29.5305 32.0873 31.2098 32.0873 32.9874C32.0873 39.0695 26.8995 44 20.5 44V34.085C19.6258 35.5256 18.4123 36.7615 16.8904 37.6575C11.6964 40.7155 4.87753 38.6552 1.65998 33.0558L10.1746 28.0429C8.50014 27.9989 6.83087 27.5532 5.29908 26.6646C0.0857593 23.6405 -1.56101 16.6329 1.62091 11.0126L10.1428 15.956ZM20.5061 21.9747C20.5041 21.9712 20.502 21.9676 20.5 21.964L20.5 21.9747C20.502 21.9747 20.5041 21.9747 20.5061 21.9747ZM20.5 22.0253V22.036L20.4939 22.0253L20.5 22.0253Z" fill="#F4ADB3"/>
</svg>
